# xmcd
#
# Track frame offsets:
#	150
#	25798
#	46628
#	78939
#	91389
#	113734
#	133513
#	148655
#	176182
#	195326
#	213852
#	239767
#	273369
#
# Disc length: 3979 seconds
#
# Revision: 0
# Processed by: cddbd v1.4PL0 Copyright (c) Steve Scherf et al.
# Submitted via: audiograbber 1.81.02
#
DISCID=ac0f890d
DTITLE=Various Artist - Lowdown, Dirty, Mississipi Delta Blues
DYEAR=2001
DGENRE=Blues
TTITLE0=Willie Foster and The Blues Upsetters - Are You Ready For The Blues?
TTITLE1=Big T and The Family Band - Black Night
TTITLE2=Guitar Charlie - I Wonder Why You're So Mean To Me
TTITLE3=Ladies Choice Band - You Can't Lose With The Stuff I Use
TTITLE4=Mickey Rogers - Little Red Rooster
TTITLE5=Brenda Mitchell and The Go/Kats - Lowdown, Dirty, Mississippi Delta Blu
TTITLE5=es
TTITLE6=Blues Prodigy - A Sinner's Prayer
TTITLE7=Guitar Charlie - I Want To Go Home
TTITLE8=Big T and The Family Band - Catfish Blues
TTITLE9=Blues Prodigy - It's A Mans World
TTITLE10=Mickey Rogers - Funky Broadway
TTITLE11=Ladies Choice Band - Have You Ever Wanted Something
TTITLE12=Willie Foster and The Blues Upsetters - Know We Love You
EXTD=Stand On The Ocean Records 632
EXTT0=
EXTT1=
EXTT2=
EXTT3=
EXTT4=
EXTT5=
EXTT6=
EXTT7=
EXTT8=
EXTT9=
EXTT10=
EXTT11=
EXTT12=
PLAYORDER=
